<mxfile host="app.diagrams.net" agent="Mozilla/5.0 (Windows NT 10.0; Win64; x64) AppleWebKit/537.36 (KHTML, like Gecko) Chrome/136.0.0.0 Safari/537.36" version="27.1.6" pages="2">
  <diagram name="第 1 页" id="Ts9QefI9ls8VZw8CITLL">
    <mxGraphModel dx="510" dy="2290" grid="0" gridSize="10" guides="1" tooltips="1" connect="1" arrows="1" fold="1" page="0" pageScale="1" pageWidth="827" pageHeight="1169" math="0" shadow="0">
      <root>
        <mxCell id="0" />
        <mxCell id="1" parent="0" />
        <mxCell id="InuJppW9Su6g9SX72eop-20" value="" style="edgeStyle=none;curved=1;rounded=0;orthogonalLoop=1;jettySize=auto;html=1;fontSize=12;startSize=8;endSize=8;" parent="1" source="InuJppW9Su6g9SX72eop-1" target="InuJppW9Su6g9SX72eop-2" edge="1">
          <mxGeometry relative="1" as="geometry" />
        </mxCell>
        <mxCell id="InuJppW9Su6g9SX72eop-1" value="START" style="ellipse;whiteSpace=wrap;html=1;" parent="1" vertex="1">
          <mxGeometry x="1044.75" y="-1082" width="70" height="40" as="geometry" />
        </mxCell>
        <mxCell id="InuJppW9Su6g9SX72eop-24" value="" style="edgeStyle=none;curved=1;rounded=0;orthogonalLoop=1;jettySize=auto;html=1;fontSize=12;startSize=8;endSize=8;" parent="1" source="InuJppW9Su6g9SX72eop-2" edge="1">
          <mxGeometry relative="1" as="geometry">
            <mxPoint x="1079.75" y="-922" as="targetPoint" />
          </mxGeometry>
        </mxCell>
        <mxCell id="InuJppW9Su6g9SX72eop-2" value="Audio Signal Preparation" style="rounded=0;whiteSpace=wrap;html=1;" parent="1" vertex="1">
          <mxGeometry x="1039.75" y="-1002" width="80" height="40" as="geometry" />
        </mxCell>
        <mxCell id="InuJppW9Su6g9SX72eop-3" value="Detrending" style="rounded=0;whiteSpace=wrap;html=1;" parent="1" vertex="1">
          <mxGeometry x="1039.75" y="-920" width="80" height="40" as="geometry" />
        </mxCell>
        <mxCell id="InuJppW9Su6g9SX72eop-28" value="" style="edgeStyle=none;curved=1;rounded=0;orthogonalLoop=1;jettySize=auto;html=1;fontSize=12;startSize=8;endSize=8;" parent="1" source="InuJppW9Su6g9SX72eop-4" target="InuJppW9Su6g9SX72eop-8" edge="1">
          <mxGeometry relative="1" as="geometry" />
        </mxCell>
        <mxCell id="InuJppW9Su6g9SX72eop-4" value="EWT" style="rounded=0;whiteSpace=wrap;html=1;" parent="1" vertex="1">
          <mxGeometry x="1360" y="-840" width="80" height="40" as="geometry" />
        </mxCell>
        <mxCell id="InuJppW9Su6g9SX72eop-6" value="STFT&lt;span style=&quot;color: rgba(0, 0, 0, 0); font-family: monospace; font-size: 0px; text-align: start; text-wrap-mode: nowrap;&quot;&gt;%3CmxGraphModel%3E%3Croot%3E%3CmxCell%20id%3D%220%22%2F%3E%3CmxCell%20id%3D%221%22%20parent%3D%220%22%2F%3E%3CmxCell%20id%3D%222%22%20value%3D%22EWT%22%20style%3D%22rounded%3D0%3BwhiteSpace%3Dwrap%3Bhtml%3D1%3B%22%20vertex%3D%221%22%20parent%3D%221%22%3E%3CmxGeometry%20x%3D%22240%22%20y%3D%22390%22%20width%3D%2280%22%20height%3D%2230%22%20as%3D%22geometry%22%2F%3E%3C%2FmxCell%3E%3C%2Froot%3E%3C%2FmxGraphModel%3E&lt;/span&gt;" style="rounded=0;whiteSpace=wrap;html=1;" parent="1" vertex="1">
          <mxGeometry x="1039.53" y="-840" width="80" height="40" as="geometry" />
        </mxCell>
        <mxCell id="InuJppW9Su6g9SX72eop-7" value="EWT+STFT" style="rounded=0;whiteSpace=wrap;html=1;" parent="1" vertex="1">
          <mxGeometry x="721" y="-840" width="80" height="40" as="geometry" />
        </mxCell>
        <mxCell id="InuJppW9Su6g9SX72eop-8" value="Split dataset 70% training, 30% testing data" style="rounded=0;whiteSpace=wrap;html=1;" parent="1" vertex="1">
          <mxGeometry x="1321.25" y="-760" width="160" height="40" as="geometry" />
        </mxCell>
        <mxCell id="InuJppW9Su6g9SX72eop-30" value="" style="edgeStyle=none;curved=1;rounded=0;orthogonalLoop=1;jettySize=auto;html=1;fontSize=12;startSize=8;endSize=8;" parent="1" source="InuJppW9Su6g9SX72eop-12" target="InuJppW9Su6g9SX72eop-15" edge="1">
          <mxGeometry relative="1" as="geometry" />
        </mxCell>
        <mxCell id="InuJppW9Su6g9SX72eop-12" value="Split dataset 70% training, 30% testing data" style="rounded=0;whiteSpace=wrap;html=1;" parent="1" vertex="1">
          <mxGeometry x="839.75" y="-760" width="160" height="40" as="geometry" />
        </mxCell>
        <mxCell id="InuJppW9Su6g9SX72eop-13" value="Development of Bayesian Classifier Model" style="rounded=0;whiteSpace=wrap;html=1;" parent="1" vertex="1">
          <mxGeometry x="1440" y="-680" width="120" height="40" as="geometry" />
        </mxCell>
        <mxCell id="InuJppW9Su6g9SX72eop-31" value="" style="edgeStyle=none;curved=1;rounded=0;orthogonalLoop=1;jettySize=auto;html=1;fontSize=12;startSize=8;endSize=8;" parent="1" source="InuJppW9Su6g9SX72eop-15" target="InuJppW9Su6g9SX72eop-16" edge="1">
          <mxGeometry relative="1" as="geometry" />
        </mxCell>
        <mxCell id="InuJppW9Su6g9SX72eop-15" value="Development of CNN Model" style="rounded=0;whiteSpace=wrap;html=1;" parent="1" vertex="1">
          <mxGeometry x="881" y="-680" width="80" height="40" as="geometry" />
        </mxCell>
        <mxCell id="InuJppW9Su6g9SX72eop-40" value="" style="edgeStyle=none;curved=1;rounded=0;orthogonalLoop=1;jettySize=auto;html=1;fontSize=12;startSize=8;endSize=8;" parent="1" source="InuJppW9Su6g9SX72eop-16" target="InuJppW9Su6g9SX72eop-36" edge="1">
          <mxGeometry relative="1" as="geometry" />
        </mxCell>
        <mxCell id="InuJppW9Su6g9SX72eop-16" value="Train CNN Model" style="rounded=0;whiteSpace=wrap;html=1;" parent="1" vertex="1">
          <mxGeometry x="1039.53" y="-680" width="80" height="40" as="geometry" />
        </mxCell>
        <mxCell id="InuJppW9Su6g9SX72eop-17" style="edgeStyle=none;curved=1;rounded=0;orthogonalLoop=1;jettySize=auto;html=1;exitX=1;exitY=0.5;exitDx=0;exitDy=0;fontSize=12;startSize=8;endSize=8;" parent="1" source="InuJppW9Su6g9SX72eop-13" target="InuJppW9Su6g9SX72eop-13" edge="1">
          <mxGeometry relative="1" as="geometry" />
        </mxCell>
        <mxCell id="InuJppW9Su6g9SX72eop-18" value="Development of Bagged Trees Model" style="rounded=0;whiteSpace=wrap;html=1;" parent="1" vertex="1">
          <mxGeometry x="1239.38" y="-680" width="120" height="40" as="geometry" />
        </mxCell>
        <mxCell id="InuJppW9Su6g9SX72eop-45" value="" style="edgeStyle=none;curved=1;rounded=0;orthogonalLoop=1;jettySize=auto;html=1;fontSize=12;startSize=8;endSize=8;" parent="1" source="InuJppW9Su6g9SX72eop-19" target="InuJppW9Su6g9SX72eop-34" edge="1">
          <mxGeometry relative="1" as="geometry" />
        </mxCell>
        <mxCell id="InuJppW9Su6g9SX72eop-19" value="Train Model" style="rounded=0;whiteSpace=wrap;html=1;" parent="1" vertex="1">
          <mxGeometry x="1359.38" y="-520" width="80" height="40" as="geometry" />
        </mxCell>
        <mxCell id="InuJppW9Su6g9SX72eop-25" value="" style="strokeWidth=2;html=1;shape=mxgraph.flowchart.annotation_2;align=left;labelPosition=right;pointerEvents=1;rotation=90;" parent="1" vertex="1">
          <mxGeometry x="1059.51" y="-1182.22" width="40.03" height="642.67" as="geometry" />
        </mxCell>
        <mxCell id="InuJppW9Su6g9SX72eop-26" value="" style="strokeWidth=2;html=1;shape=mxgraph.flowchart.annotation_2;align=left;labelPosition=right;pointerEvents=1;rotation=-90;" parent="1" vertex="1">
          <mxGeometry x="901" y="-940" width="40" height="320" as="geometry" />
        </mxCell>
        <mxCell id="InuJppW9Su6g9SX72eop-29" value="" style="strokeWidth=2;html=1;shape=mxgraph.flowchart.annotation_2;align=left;labelPosition=right;pointerEvents=1;rotation=90;" parent="1" vertex="1">
          <mxGeometry x="1381.25" y="-780" width="40" height="160" as="geometry" />
        </mxCell>
        <mxCell id="InuJppW9Su6g9SX72eop-32" value="" style="strokeWidth=2;html=1;shape=mxgraph.flowchart.annotation_2;align=left;labelPosition=right;pointerEvents=1;rotation=-90;" parent="1" vertex="1">
          <mxGeometry x="1339.91" y="-679.9" width="122.19" height="200" as="geometry" />
        </mxCell>
        <mxCell id="InuJppW9Su6g9SX72eop-34" value="Test Model with testing model" style="shape=parallelogram;perimeter=parallelogramPerimeter;whiteSpace=wrap;html=1;fixedSize=1;" parent="1" vertex="1">
          <mxGeometry x="1339.38" y="-442" width="120" height="40" as="geometry" />
        </mxCell>
        <mxCell id="InuJppW9Su6g9SX72eop-41" value="" style="edgeStyle=none;curved=1;rounded=0;orthogonalLoop=1;jettySize=auto;html=1;fontSize=12;startSize=8;endSize=8;" parent="1" source="InuJppW9Su6g9SX72eop-36" target="InuJppW9Su6g9SX72eop-38" edge="1">
          <mxGeometry relative="1" as="geometry" />
        </mxCell>
        <mxCell id="InuJppW9Su6g9SX72eop-36" value="Test Model with testing model" style="shape=parallelogram;perimeter=parallelogramPerimeter;whiteSpace=wrap;html=1;fixedSize=1;" parent="1" vertex="1">
          <mxGeometry x="1019.53" y="-470" width="120" height="40" as="geometry" />
        </mxCell>
        <mxCell id="InuJppW9Su6g9SX72eop-44" value="" style="edgeStyle=none;curved=1;rounded=0;orthogonalLoop=1;jettySize=auto;html=1;fontSize=12;startSize=8;endSize=8;" parent="1" source="InuJppW9Su6g9SX72eop-37" target="InuJppW9Su6g9SX72eop-15" edge="1">
          <mxGeometry relative="1" as="geometry" />
        </mxCell>
        <mxCell id="InuJppW9Su6g9SX72eop-37" value="Redefine parameter" style="rounded=0;whiteSpace=wrap;html=1;" parent="1" vertex="1">
          <mxGeometry x="879.75" y="-604" width="80" height="40" as="geometry" />
        </mxCell>
        <mxCell id="InuJppW9Su6g9SX72eop-38" value="Accepted with CNN Model" style="rhombus;whiteSpace=wrap;html=1;" parent="1" vertex="1">
          <mxGeometry x="837.25" y="-480" width="162.5" height="60" as="geometry" />
        </mxCell>
        <mxCell id="InuJppW9Su6g9SX72eop-46" value="Compare the classification accuracy of EWT+Bayes and&amp;nbsp; EWT+Bagged Trees" style="rounded=0;whiteSpace=wrap;html=1;" parent="1" vertex="1">
          <mxGeometry x="1318.47" y="-240" width="160" height="40" as="geometry" />
        </mxCell>
        <mxCell id="InuJppW9Su6g9SX72eop-47" value="&lt;div&gt;Accepted Bayesian&lt;/div&gt;&lt;div&gt;Classifier Mode&lt;/div&gt;" style="rhombus;whiteSpace=wrap;html=1;" parent="1" vertex="1">
          <mxGeometry x="1440" y="-362.23" width="157.5" height="60" as="geometry" />
        </mxCell>
        <mxCell id="InuJppW9Su6g9SX72eop-48" value="Accepted Bagged&amp;nbsp;&lt;div&gt;Trees Mode&lt;/div&gt;" style="rhombus;whiteSpace=wrap;html=1;" parent="1" vertex="1">
          <mxGeometry x="1200" y="-362.23" width="160" height="60" as="geometry" />
        </mxCell>
        <mxCell id="InuJppW9Su6g9SX72eop-49" value="Redefine parameter" style="rounded=0;whiteSpace=wrap;html=1;" parent="1" vertex="1">
          <mxGeometry x="1540" y="-520" width="120" height="40" as="geometry" />
        </mxCell>
        <mxCell id="InuJppW9Su6g9SX72eop-50" value="Redefine parameter" style="rounded=0;whiteSpace=wrap;html=1;" parent="1" vertex="1">
          <mxGeometry x="1139.5300000000002" y="-520" width="120" height="40" as="geometry" />
        </mxCell>
        <mxCell id="InuJppW9Su6g9SX72eop-55" value="" style="strokeWidth=2;html=1;shape=mxgraph.flowchart.annotation_2;align=left;labelPosition=right;pointerEvents=1;rotation=90;" parent="1" vertex="1">
          <mxGeometry x="1377.5" y="-500.41" width="41.93" height="238.89" as="geometry" />
        </mxCell>
        <mxCell id="InuJppW9Su6g9SX72eop-61" value="Compare the classification accury of STFT+CNN and EWT+STFT" style="whiteSpace=wrap;html=1;" parent="1" vertex="1">
          <mxGeometry x="818.5" y="-240" width="200" height="40" as="geometry" />
        </mxCell>
        <mxCell id="InuJppW9Su6g9SX72eop-63" value="" style="strokeWidth=2;html=1;shape=mxgraph.flowchart.annotation_2;align=left;labelPosition=right;pointerEvents=1;rotation=-90;" parent="1" vertex="1">
          <mxGeometry x="1140.33" y="-422.82" width="38.75" height="482.5" as="geometry" />
        </mxCell>
        <mxCell id="InuJppW9Su6g9SX72eop-66" value="" style="edgeStyle=none;curved=1;rounded=0;orthogonalLoop=1;jettySize=auto;html=1;fontSize=12;startSize=8;endSize=8;" parent="1" source="InuJppW9Su6g9SX72eop-64" target="InuJppW9Su6g9SX72eop-65" edge="1">
          <mxGeometry relative="1" as="geometry" />
        </mxCell>
        <mxCell id="InuJppW9Su6g9SX72eop-64" value="Compare the accuracy to find the best method" style="rounded=0;whiteSpace=wrap;html=1;" parent="1" vertex="1">
          <mxGeometry x="1099.71" y="-160" width="120" height="40" as="geometry" />
        </mxCell>
        <mxCell id="InuJppW9Su6g9SX72eop-65" value="END" style="ellipse;whiteSpace=wrap;html=1;rounded=0;" parent="1" vertex="1">
          <mxGeometry x="1118.75" y="-80" width="80" height="40" as="geometry" />
        </mxCell>
        <mxCell id="InuJppW9Su6g9SX72eop-69" value="" style="strokeWidth=2;html=1;shape=mxgraph.flowchart.annotation_2;align=left;labelPosition=right;pointerEvents=1;rotation=-90;" parent="1" vertex="1">
          <mxGeometry x="1367.97" y="-392.03" width="64.06" height="240" as="geometry" />
        </mxCell>
        <mxCell id="QcKPX9PLKNFZhxvS6d2n-1" value="Original Signal x(t)" style="rounded=0;whiteSpace=wrap;html=1;" parent="1" vertex="1">
          <mxGeometry x="240" y="680" width="200" height="40" as="geometry" />
        </mxCell>
        <mxCell id="QcKPX9PLKNFZhxvS6d2n-3" value="Sliding Window Framing h(n−m)" style="rounded=0;whiteSpace=wrap;html=1;" parent="1" vertex="1">
          <mxGeometry x="240" y="760" width="200" height="40" as="geometry" />
        </mxCell>
        <mxCell id="QcKPX9PLKNFZhxvS6d2n-4" value="Fourier Transform (FFT)" style="rounded=0;whiteSpace=wrap;html=1;" parent="1" vertex="1">
          <mxGeometry x="240" y="840" width="200" height="40" as="geometry" />
        </mxCell>
        <mxCell id="QcKPX9PLKNFZhxvS6d2n-5" value="|X(n, ω)|² → log → Colormap" style="rounded=0;whiteSpace=wrap;html=1;" parent="1" vertex="1">
          <mxGeometry x="240" y="920" width="200" height="40" as="geometry" />
        </mxCell>
        <mxCell id="QcKPX9PLKNFZhxvS6d2n-6" value="Spectrogram Output" style="rounded=0;whiteSpace=wrap;html=1;" parent="1" vertex="1">
          <mxGeometry x="240" y="1000" width="200" height="40" as="geometry" />
        </mxCell>
        <mxCell id="QcKPX9PLKNFZhxvS6d2n-7" value="" style="endArrow=classic;html=1;rounded=0;exitX=0.5;exitY=1;exitDx=0;exitDy=0;entryX=0.5;entryY=0;entryDx=0;entryDy=0;" parent="1" source="QcKPX9PLKNFZhxvS6d2n-1" target="QcKPX9PLKNFZhxvS6d2n-3" edge="1">
          <mxGeometry width="50" height="50" relative="1" as="geometry">
            <mxPoint x="710" y="980" as="sourcePoint" />
            <mxPoint x="760" y="930" as="targetPoint" />
          </mxGeometry>
        </mxCell>
        <mxCell id="QcKPX9PLKNFZhxvS6d2n-8" value="" style="endArrow=classic;html=1;rounded=0;exitX=0.5;exitY=1;exitDx=0;exitDy=0;entryX=0.5;entryY=0;entryDx=0;entryDy=0;" parent="1" source="QcKPX9PLKNFZhxvS6d2n-3" target="QcKPX9PLKNFZhxvS6d2n-4" edge="1">
          <mxGeometry width="50" height="50" relative="1" as="geometry">
            <mxPoint x="350" y="790" as="sourcePoint" />
            <mxPoint x="350" y="830" as="targetPoint" />
          </mxGeometry>
        </mxCell>
        <mxCell id="QcKPX9PLKNFZhxvS6d2n-9" value="" style="endArrow=classic;html=1;rounded=0;exitX=0.5;exitY=1;exitDx=0;exitDy=0;entryX=0.5;entryY=0;entryDx=0;entryDy=0;" parent="1" source="QcKPX9PLKNFZhxvS6d2n-4" target="QcKPX9PLKNFZhxvS6d2n-5" edge="1">
          <mxGeometry width="50" height="50" relative="1" as="geometry">
            <mxPoint x="350" y="850" as="sourcePoint" />
            <mxPoint x="350" y="890" as="targetPoint" />
          </mxGeometry>
        </mxCell>
        <mxCell id="QcKPX9PLKNFZhxvS6d2n-10" value="" style="endArrow=classic;html=1;rounded=0;exitX=0.5;exitY=1;exitDx=0;exitDy=0;" parent="1" source="QcKPX9PLKNFZhxvS6d2n-5" target="QcKPX9PLKNFZhxvS6d2n-6" edge="1">
          <mxGeometry width="50" height="50" relative="1" as="geometry">
            <mxPoint x="400" y="1030" as="sourcePoint" />
            <mxPoint x="400" y="1070" as="targetPoint" />
          </mxGeometry>
        </mxCell>
        <mxCell id="bjQ1mSkmay1jrwjNl--r-12" value="" style="strokeWidth=2;html=1;shape=mxgraph.flowchart.annotation_1;align=left;pointerEvents=1;rotation=90;" parent="1" vertex="1">
          <mxGeometry x="1230.04" y="-1011.42" width="20" height="320.09" as="geometry" />
        </mxCell>
        <mxCell id="bjQ1mSkmay1jrwjNl--r-26" value="" style="edgeStyle=orthogonalEdgeStyle;rounded=0;orthogonalLoop=1;jettySize=auto;html=1;" parent="1" source="bjQ1mSkmay1jrwjNl--r-14" target="bjQ1mSkmay1jrwjNl--r-15" edge="1">
          <mxGeometry relative="1" as="geometry" />
        </mxCell>
        <mxCell id="bjQ1mSkmay1jrwjNl--r-14" value="START" style="ellipse;whiteSpace=wrap;html=1;" parent="1" vertex="1">
          <mxGeometry x="1120" y="160" width="120" height="40" as="geometry" />
        </mxCell>
        <mxCell id="bjQ1mSkmay1jrwjNl--r-15" value="Feature Modeling" style="rounded=0;whiteSpace=wrap;html=1;" parent="1" vertex="1">
          <mxGeometry x="1120" y="240" width="120" height="40" as="geometry" />
        </mxCell>
        <mxCell id="bjQ1mSkmay1jrwjNl--r-16" value="Gaussion" style="rounded=0;whiteSpace=wrap;html=1;" parent="1" vertex="1">
          <mxGeometry x="999.75" y="320" width="80" height="40" as="geometry" />
        </mxCell>
        <mxCell id="bjQ1mSkmay1jrwjNl--r-17" value="Kernel" style="rounded=0;whiteSpace=wrap;html=1;" parent="1" vertex="1">
          <mxGeometry x="1280" y="320" width="80" height="40" as="geometry" />
        </mxCell>
        <mxCell id="bjQ1mSkmay1jrwjNl--r-18" value="Empirical" style="rounded=0;whiteSpace=wrap;html=1;" parent="1" vertex="1">
          <mxGeometry x="1079.75" y="400" width="80.29" height="40" as="geometry" />
        </mxCell>
        <mxCell id="bjQ1mSkmay1jrwjNl--r-20" value="Uniform" style="rounded=0;whiteSpace=wrap;html=1;" parent="1" vertex="1">
          <mxGeometry x="919.75" y="400" width="80" height="40" as="geometry" />
        </mxCell>
        <mxCell id="bjQ1mSkmay1jrwjNl--r-22" value="Five-fold cross validation" style="rounded=0;whiteSpace=wrap;html=1;" parent="1" vertex="1">
          <mxGeometry x="1119.38" y="480" width="120" height="40" as="geometry" />
        </mxCell>
        <mxCell id="bjQ1mSkmay1jrwjNl--r-23" value="END" style="ellipse;whiteSpace=wrap;html=1;" parent="1" vertex="1">
          <mxGeometry x="1119.38" y="560" width="120" height="40" as="geometry" />
        </mxCell>
        <mxCell id="bjQ1mSkmay1jrwjNl--r-24" value="Uniform" style="rounded=0;whiteSpace=wrap;html=1;" parent="1" vertex="1">
          <mxGeometry x="1200.04" y="400" width="80" height="40" as="geometry" />
        </mxCell>
        <mxCell id="bjQ1mSkmay1jrwjNl--r-25" value="Empirical" style="rounded=0;whiteSpace=wrap;html=1;" parent="1" vertex="1">
          <mxGeometry x="1359.71" y="400" width="80.29" height="40" as="geometry" />
        </mxCell>
        <mxCell id="bjQ1mSkmay1jrwjNl--r-29" value="" style="strokeWidth=2;html=1;shape=mxgraph.flowchart.annotation_2;align=left;labelPosition=right;pointerEvents=1;rotation=90;" parent="1" vertex="1">
          <mxGeometry x="1161.68" y="160" width="39.22" height="280" as="geometry" />
        </mxCell>
        <mxCell id="bjQ1mSkmay1jrwjNl--r-30" value="" style="strokeWidth=2;html=1;shape=mxgraph.flowchart.annotation_2;align=left;labelPosition=right;pointerEvents=1;rotation=90;" parent="1" vertex="1">
          <mxGeometry x="1020.29" y="300" width="39.22" height="160" as="geometry" />
        </mxCell>
        <mxCell id="bjQ1mSkmay1jrwjNl--r-31" value="" style="strokeWidth=2;html=1;shape=mxgraph.flowchart.annotation_2;align=left;labelPosition=right;pointerEvents=1;rotation=90;" parent="1" vertex="1">
          <mxGeometry x="1300.16" y="299.9999999999999" width="39.22" height="160" as="geometry" />
        </mxCell>
        <mxCell id="bjQ1mSkmay1jrwjNl--r-33" value="" style="endArrow=classic;html=1;rounded=0;exitX=0.5;exitY=1;exitDx=0;exitDy=0;entryX=0.5;entryY=0;entryDx=0;entryDy=0;" parent="1" source="bjQ1mSkmay1jrwjNl--r-22" target="bjQ1mSkmay1jrwjNl--r-23" edge="1">
          <mxGeometry width="50" height="50" relative="1" as="geometry">
            <mxPoint x="1180" y="450" as="sourcePoint" />
            <mxPoint x="1230" y="400" as="targetPoint" />
          </mxGeometry>
        </mxCell>
        <mxCell id="bjQ1mSkmay1jrwjNl--r-34" value="" style="strokeWidth=2;html=1;shape=mxgraph.flowchart.annotation_2;align=left;labelPosition=right;pointerEvents=1;rotation=-90;" parent="1" vertex="1">
          <mxGeometry x="1159.53" y="400" width="39.22" height="120" as="geometry" />
        </mxCell>
        <mxCell id="bjQ1mSkmay1jrwjNl--r-35" value="" style="strokeWidth=2;html=1;shape=mxgraph.flowchart.annotation_2;align=left;labelPosition=right;pointerEvents=1;rotation=-90;" parent="1" vertex="1">
          <mxGeometry x="1160.49" y="240.94" width="39.22" height="438.09" as="geometry" />
        </mxCell>
        <mxCell id="bjQ1mSkmay1jrwjNl--r-36" value="START" style="ellipse;whiteSpace=wrap;html=1;" parent="1" vertex="1">
          <mxGeometry x="2040" y="-442.03" width="80" height="42.03" as="geometry" />
        </mxCell>
        <mxCell id="bjQ1mSkmay1jrwjNl--r-37" value="Training Data" style="rounded=0;whiteSpace=wrap;html=1;" parent="1" vertex="1">
          <mxGeometry x="2040" y="-360" width="80" height="40" as="geometry" />
        </mxCell>
        <mxCell id="bjQ1mSkmay1jrwjNl--r-38" value="D_1 (Bootstrap)" style="rounded=0;whiteSpace=wrap;html=1;" parent="1" vertex="1">
          <mxGeometry x="1920" y="-280" width="80" height="40" as="geometry" />
        </mxCell>
        <mxCell id="bjQ1mSkmay1jrwjNl--r-39" value="D_2 (Bootstrap)" style="rounded=0;whiteSpace=wrap;html=1;" parent="1" vertex="1">
          <mxGeometry x="2040" y="-280" width="80" height="40" as="geometry" />
        </mxCell>
        <mxCell id="bjQ1mSkmay1jrwjNl--r-40" value="D _B (Bootstrap)…" style="rounded=0;whiteSpace=wrap;html=1;" parent="1" vertex="1">
          <mxGeometry x="2160" y="-280" width="80" height="40" as="geometry" />
        </mxCell>
        <mxCell id="bjQ1mSkmay1jrwjNl--r-41" value="f_1(x) Tree" style="rounded=0;whiteSpace=wrap;html=1;" parent="1" vertex="1">
          <mxGeometry x="1920" y="-200" width="80" height="40" as="geometry" />
        </mxCell>
        <mxCell id="bjQ1mSkmay1jrwjNl--r-44" value="f_2(x) Tree" style="rounded=0;whiteSpace=wrap;html=1;" parent="1" vertex="1">
          <mxGeometry x="2040" y="-200" width="80" height="40" as="geometry" />
        </mxCell>
        <mxCell id="bjQ1mSkmay1jrwjNl--r-45" value="f_B(x) Tree…" style="rounded=0;whiteSpace=wrap;html=1;" parent="1" vertex="1">
          <mxGeometry x="2160" y="-200" width="80" height="40" as="geometry" />
        </mxCell>
        <mxCell id="bjQ1mSkmay1jrwjNl--r-46" value="Majority Voting" style="rounded=0;whiteSpace=wrap;html=1;" parent="1" vertex="1">
          <mxGeometry x="2040" y="-120" width="80" height="40" as="geometry" />
        </mxCell>
        <mxCell id="bjQ1mSkmay1jrwjNl--r-47" value="Final Prediction f_bag(x)" style="rounded=0;whiteSpace=wrap;html=1;" parent="1" vertex="1">
          <mxGeometry x="2020" y="-40" width="120" height="40" as="geometry" />
        </mxCell>
        <mxCell id="bjQ1mSkmay1jrwjNl--r-48" value="END" style="ellipse;whiteSpace=wrap;html=1;" parent="1" vertex="1">
          <mxGeometry x="2040" y="40" width="80" height="40" as="geometry" />
        </mxCell>
        <mxCell id="bjQ1mSkmay1jrwjNl--r-49" value="" style="endArrow=classic;html=1;rounded=0;exitX=0.5;exitY=1;exitDx=0;exitDy=0;entryX=0.5;entryY=0;entryDx=0;entryDy=0;" parent="1" source="bjQ1mSkmay1jrwjNl--r-36" target="bjQ1mSkmay1jrwjNl--r-37" edge="1">
          <mxGeometry width="50" height="50" relative="1" as="geometry">
            <mxPoint x="2090" y="-180" as="sourcePoint" />
            <mxPoint x="2140" y="-230" as="targetPoint" />
          </mxGeometry>
        </mxCell>
        <mxCell id="bjQ1mSkmay1jrwjNl--r-50" value="" style="endArrow=classic;html=1;rounded=0;exitX=0.5;exitY=1;exitDx=0;exitDy=0;entryX=0.5;entryY=0;entryDx=0;entryDy=0;" parent="1" edge="1">
          <mxGeometry width="50" height="50" relative="1" as="geometry">
            <mxPoint x="2199.68" y="-240" as="sourcePoint" />
            <mxPoint x="2199.68" y="-200" as="targetPoint" />
          </mxGeometry>
        </mxCell>
        <mxCell id="bjQ1mSkmay1jrwjNl--r-51" value="" style="endArrow=classic;html=1;rounded=0;exitX=0.5;exitY=1;exitDx=0;exitDy=0;entryX=0.5;entryY=0;entryDx=0;entryDy=0;" parent="1" edge="1">
          <mxGeometry width="50" height="50" relative="1" as="geometry">
            <mxPoint x="2079.68" y="-240" as="sourcePoint" />
            <mxPoint x="2079.68" y="-200" as="targetPoint" />
          </mxGeometry>
        </mxCell>
        <mxCell id="bjQ1mSkmay1jrwjNl--r-52" value="" style="endArrow=classic;html=1;rounded=0;exitX=0.5;exitY=1;exitDx=0;exitDy=0;entryX=0.5;entryY=0;entryDx=0;entryDy=0;" parent="1" edge="1">
          <mxGeometry width="50" height="50" relative="1" as="geometry">
            <mxPoint x="1959.68" y="-240" as="sourcePoint" />
            <mxPoint x="1959.68" y="-200" as="targetPoint" />
          </mxGeometry>
        </mxCell>
        <mxCell id="bjQ1mSkmay1jrwjNl--r-53" value="" style="endArrow=classic;html=1;rounded=0;exitX=0.5;exitY=1;exitDx=0;exitDy=0;entryX=0.5;entryY=0;entryDx=0;entryDy=0;" parent="1" edge="1">
          <mxGeometry width="50" height="50" relative="1" as="geometry">
            <mxPoint x="2079.68" y="-80" as="sourcePoint" />
            <mxPoint x="2079.68" y="-40" as="targetPoint" />
          </mxGeometry>
        </mxCell>
        <mxCell id="bjQ1mSkmay1jrwjNl--r-54" value="" style="endArrow=classic;html=1;rounded=0;exitX=0.5;exitY=1;exitDx=0;exitDy=0;entryX=0.5;entryY=0;entryDx=0;entryDy=0;" parent="1" edge="1">
          <mxGeometry width="50" height="50" relative="1" as="geometry">
            <mxPoint x="2079.68" as="sourcePoint" />
            <mxPoint x="2079.68" y="40" as="targetPoint" />
          </mxGeometry>
        </mxCell>
        <mxCell id="bjQ1mSkmay1jrwjNl--r-55" value="" style="strokeWidth=2;html=1;shape=mxgraph.flowchart.annotation_2;align=left;labelPosition=right;pointerEvents=1;rotation=90;" parent="1" vertex="1">
          <mxGeometry x="2058.79" y="-420.88" width="40.63" height="241.17" as="geometry" />
        </mxCell>
        <mxCell id="bjQ1mSkmay1jrwjNl--r-56" value="" style="strokeWidth=2;html=1;shape=mxgraph.flowchart.annotation_2;align=left;labelPosition=right;pointerEvents=1;rotation=-90;" parent="1" vertex="1">
          <mxGeometry x="2058.79" y="-260.5799999999999" width="40.63" height="241.17" as="geometry" />
        </mxCell>
        <mxCell id="bjQ1mSkmay1jrwjNl--r-69" value="" style="edgeStyle=orthogonalEdgeStyle;rounded=0;orthogonalLoop=1;jettySize=auto;html=1;" parent="1" source="bjQ1mSkmay1jrwjNl--r-59" target="bjQ1mSkmay1jrwjNl--r-60" edge="1">
          <mxGeometry relative="1" as="geometry" />
        </mxCell>
        <mxCell id="bjQ1mSkmay1jrwjNl--r-59" value="START" style="ellipse;whiteSpace=wrap;html=1;" parent="1" vertex="1">
          <mxGeometry x="3800" y="-400" width="80" height="40" as="geometry" />
        </mxCell>
        <mxCell id="bjQ1mSkmay1jrwjNl--r-70" value="" style="edgeStyle=orthogonalEdgeStyle;rounded=0;orthogonalLoop=1;jettySize=auto;html=1;" parent="1" source="bjQ1mSkmay1jrwjNl--r-60" target="bjQ1mSkmay1jrwjNl--r-61" edge="1">
          <mxGeometry relative="1" as="geometry" />
        </mxCell>
        <mxCell id="bjQ1mSkmay1jrwjNl--r-60" value="Input [128×128×3]" style="rounded=0;whiteSpace=wrap;html=1;" parent="1" vertex="1">
          <mxGeometry x="3780" y="-320" width="120" height="40" as="geometry" />
        </mxCell>
        <mxCell id="bjQ1mSkmay1jrwjNl--r-71" value="" style="edgeStyle=orthogonalEdgeStyle;rounded=0;orthogonalLoop=1;jettySize=auto;html=1;" parent="1" source="bjQ1mSkmay1jrwjNl--r-61" target="bjQ1mSkmay1jrwjNl--r-62" edge="1">
          <mxGeometry relative="1" as="geometry" />
        </mxCell>
        <mxCell id="bjQ1mSkmay1jrwjNl--r-61" value="Conv3×3×32→BN→ReLU→MaxPool2×2" style="rounded=0;whiteSpace=wrap;html=1;" parent="1" vertex="1">
          <mxGeometry x="3720" y="-239.71" width="240" height="39.71" as="geometry" />
        </mxCell>
        <mxCell id="bjQ1mSkmay1jrwjNl--r-72" value="" style="edgeStyle=orthogonalEdgeStyle;rounded=0;orthogonalLoop=1;jettySize=auto;html=1;" parent="1" source="bjQ1mSkmay1jrwjNl--r-62" target="bjQ1mSkmay1jrwjNl--r-63" edge="1">
          <mxGeometry relative="1" as="geometry" />
        </mxCell>
        <mxCell id="bjQ1mSkmay1jrwjNl--r-62" value="Conv3×3×64→BN→ReLU→MaxPool2×2" style="rounded=0;whiteSpace=wrap;html=1;" parent="1" vertex="1">
          <mxGeometry x="3720" y="-160" width="240" height="40" as="geometry" />
        </mxCell>
        <mxCell id="bjQ1mSkmay1jrwjNl--r-73" value="" style="edgeStyle=orthogonalEdgeStyle;rounded=0;orthogonalLoop=1;jettySize=auto;html=1;" parent="1" source="bjQ1mSkmay1jrwjNl--r-63" target="bjQ1mSkmay1jrwjNl--r-64" edge="1">
          <mxGeometry relative="1" as="geometry" />
        </mxCell>
        <mxCell id="bjQ1mSkmay1jrwjNl--r-63" value="Conv3×3×128→BN→ReLU→MaxPool2×2" style="rounded=0;whiteSpace=wrap;html=1;" parent="1" vertex="1">
          <mxGeometry x="3720" y="-79.41" width="240" height="39.41" as="geometry" />
        </mxCell>
        <mxCell id="bjQ1mSkmay1jrwjNl--r-74" value="" style="edgeStyle=orthogonalEdgeStyle;rounded=0;orthogonalLoop=1;jettySize=auto;html=1;" parent="1" source="bjQ1mSkmay1jrwjNl--r-64" target="bjQ1mSkmay1jrwjNl--r-65" edge="1">
          <mxGeometry relative="1" as="geometry" />
        </mxCell>
        <mxCell id="bjQ1mSkmay1jrwjNl--r-64" value="Conv3×3×256→BN→ReLU→MaxPool2×2" style="rounded=0;whiteSpace=wrap;html=1;" parent="1" vertex="1">
          <mxGeometry x="3720" width="240" height="40" as="geometry" />
        </mxCell>
        <mxCell id="bjQ1mSkmay1jrwjNl--r-75" value="" style="edgeStyle=orthogonalEdgeStyle;rounded=0;orthogonalLoop=1;jettySize=auto;html=1;" parent="1" source="bjQ1mSkmay1jrwjNl--r-65" target="bjQ1mSkmay1jrwjNl--r-66" edge="1">
          <mxGeometry relative="1" as="geometry" />
        </mxCell>
        <mxCell id="bjQ1mSkmay1jrwjNl--r-65" value="Dropout(0.6)" style="rounded=0;whiteSpace=wrap;html=1;" parent="1" vertex="1">
          <mxGeometry x="3800" y="80" width="80" height="40" as="geometry" />
        </mxCell>
        <mxCell id="bjQ1mSkmay1jrwjNl--r-76" value="" style="edgeStyle=orthogonalEdgeStyle;rounded=0;orthogonalLoop=1;jettySize=auto;html=1;" parent="1" source="bjQ1mSkmay1jrwjNl--r-66" target="bjQ1mSkmay1jrwjNl--r-67" edge="1">
          <mxGeometry relative="1" as="geometry" />
        </mxCell>
        <mxCell id="bjQ1mSkmay1jrwjNl--r-66" value="FC(128)→ReLU" style="rounded=0;whiteSpace=wrap;html=1;" parent="1" vertex="1">
          <mxGeometry x="3780" y="160" width="120" height="40" as="geometry" />
        </mxCell>
        <mxCell id="bjQ1mSkmay1jrwjNl--r-77" value="" style="edgeStyle=orthogonalEdgeStyle;rounded=0;orthogonalLoop=1;jettySize=auto;html=1;" parent="1" source="bjQ1mSkmay1jrwjNl--r-67" target="bjQ1mSkmay1jrwjNl--r-68" edge="1">
          <mxGeometry relative="1" as="geometry" />
        </mxCell>
        <mxCell id="bjQ1mSkmay1jrwjNl--r-67" value="FC(numClasses)→Softmax" style="rounded=0;whiteSpace=wrap;html=1;" parent="1" vertex="1">
          <mxGeometry x="3760" y="240" width="160" height="40" as="geometry" />
        </mxCell>
        <mxCell id="bjQ1mSkmay1jrwjNl--r-79" value="" style="edgeStyle=orthogonalEdgeStyle;rounded=0;orthogonalLoop=1;jettySize=auto;html=1;" parent="1" source="bjQ1mSkmay1jrwjNl--r-68" target="bjQ1mSkmay1jrwjNl--r-78" edge="1">
          <mxGeometry relative="1" as="geometry" />
        </mxCell>
        <mxCell id="bjQ1mSkmay1jrwjNl--r-68" value="Classification Output" style="rounded=0;whiteSpace=wrap;html=1;" parent="1" vertex="1">
          <mxGeometry x="3780" y="320" width="120" height="40" as="geometry" />
        </mxCell>
        <mxCell id="bjQ1mSkmay1jrwjNl--r-78" value="END" style="ellipse;whiteSpace=wrap;html=1;" parent="1" vertex="1">
          <mxGeometry x="3800" y="400" width="80" height="40" as="geometry" />
        </mxCell>
        <mxCell id="dg7a1gWHMKsd2DPE6517-1" value="" style="endArrow=classic;html=1;rounded=0;fontSize=12;startSize=8;endSize=8;curved=1;exitX=0.5;exitY=0;exitDx=0;exitDy=0;entryX=0.5;entryY=1;entryDx=0;entryDy=0;" parent="1" source="InuJppW9Su6g9SX72eop-38" target="InuJppW9Su6g9SX72eop-37" edge="1">
          <mxGeometry relative="1" as="geometry">
            <mxPoint x="890" y="-510" as="sourcePoint" />
            <mxPoint x="990" y="-510" as="targetPoint" />
          </mxGeometry>
        </mxCell>
        <mxCell id="dg7a1gWHMKsd2DPE6517-2" value="No" style="edgeLabel;resizable=0;html=1;;align=center;verticalAlign=middle;" parent="dg7a1gWHMKsd2DPE6517-1" connectable="0" vertex="1">
          <mxGeometry relative="1" as="geometry" />
        </mxCell>
        <mxCell id="dg7a1gWHMKsd2DPE6517-4" value="" style="endArrow=classic;html=1;rounded=0;fontSize=12;startSize=8;endSize=8;curved=1;exitX=0.5;exitY=1;exitDx=0;exitDy=0;entryX=0.5;entryY=0;entryDx=0;entryDy=0;" parent="1" source="InuJppW9Su6g9SX72eop-38" target="InuJppW9Su6g9SX72eop-61" edge="1">
          <mxGeometry relative="1" as="geometry">
            <mxPoint x="890" y="-320" as="sourcePoint" />
            <mxPoint x="990" y="-320" as="targetPoint" />
          </mxGeometry>
        </mxCell>
        <mxCell id="dg7a1gWHMKsd2DPE6517-5" value="Yes" style="edgeLabel;resizable=0;html=1;;align=center;verticalAlign=middle;" parent="dg7a1gWHMKsd2DPE6517-4" connectable="0" vertex="1">
          <mxGeometry relative="1" as="geometry" />
        </mxCell>
        <mxCell id="dg7a1gWHMKsd2DPE6517-9" value="" style="endArrow=classic;html=1;rounded=0;fontSize=12;startSize=8;endSize=8;curved=1;exitX=0.5;exitY=1;exitDx=0;exitDy=0;entryX=0.5;entryY=0;entryDx=0;entryDy=0;entryPerimeter=0;" parent="1" source="InuJppW9Su6g9SX72eop-18" target="InuJppW9Su6g9SX72eop-32" edge="1">
          <mxGeometry width="50" height="50" relative="1" as="geometry">
            <mxPoint x="1310" y="-470" as="sourcePoint" />
            <mxPoint x="1300" y="-600" as="targetPoint" />
          </mxGeometry>
        </mxCell>
        <mxCell id="dg7a1gWHMKsd2DPE6517-10" value="" style="endArrow=classic;html=1;rounded=0;fontSize=12;startSize=8;endSize=8;curved=1;exitX=0.5;exitY=1;exitDx=0;exitDy=0;entryX=0.5;entryY=1;entryDx=0;entryDy=0;entryPerimeter=0;" parent="1" source="InuJppW9Su6g9SX72eop-13" target="InuJppW9Su6g9SX72eop-32" edge="1">
          <mxGeometry width="50" height="50" relative="1" as="geometry">
            <mxPoint x="1560" y="-610" as="sourcePoint" />
            <mxPoint x="1499.7917891241177" y="-599.55" as="targetPoint" />
          </mxGeometry>
        </mxCell>
        <mxCell id="dg7a1gWHMKsd2DPE6517-12" value="" style="edgeStyle=segmentEdgeStyle;endArrow=classic;html=1;curved=0;rounded=0;endSize=8;startSize=8;fontSize=12;exitX=0.5;exitY=0;exitDx=0;exitDy=0;entryX=1;entryY=0.5;entryDx=0;entryDy=0;" parent="1" source="InuJppW9Su6g9SX72eop-49" target="InuJppW9Su6g9SX72eop-13" edge="1">
          <mxGeometry width="50" height="50" relative="1" as="geometry">
            <mxPoint x="1520" y="-490" as="sourcePoint" />
            <mxPoint x="1570" y="-540" as="targetPoint" />
            <Array as="points">
              <mxPoint x="1600" y="-660" />
            </Array>
          </mxGeometry>
        </mxCell>
        <mxCell id="dg7a1gWHMKsd2DPE6517-13" value="" style="endArrow=classic;html=1;rounded=0;fontSize=12;startSize=8;endSize=8;curved=1;exitX=0;exitY=0.5;exitDx=0;exitDy=0;entryX=0.5;entryY=1;entryDx=0;entryDy=0;" parent="1" source="InuJppW9Su6g9SX72eop-48" target="InuJppW9Su6g9SX72eop-50" edge="1">
          <mxGeometry relative="1" as="geometry">
            <mxPoint x="1290" y="-500" as="sourcePoint" />
            <mxPoint x="1390" y="-500" as="targetPoint" />
          </mxGeometry>
        </mxCell>
        <mxCell id="dg7a1gWHMKsd2DPE6517-14" value="No" style="edgeLabel;resizable=0;html=1;;align=center;verticalAlign=middle;" parent="dg7a1gWHMKsd2DPE6517-13" connectable="0" vertex="1">
          <mxGeometry relative="1" as="geometry" />
        </mxCell>
        <mxCell id="dg7a1gWHMKsd2DPE6517-16" value="" style="edgeStyle=segmentEdgeStyle;endArrow=classic;html=1;curved=0;rounded=0;endSize=8;startSize=8;fontSize=12;exitX=0.5;exitY=0;exitDx=0;exitDy=0;entryX=0;entryY=0.5;entryDx=0;entryDy=0;" parent="1" source="InuJppW9Su6g9SX72eop-50" target="InuJppW9Su6g9SX72eop-18" edge="1">
          <mxGeometry width="50" height="50" relative="1" as="geometry">
            <mxPoint x="1230" y="-600" as="sourcePoint" />
            <mxPoint x="1280" y="-650" as="targetPoint" />
            <Array as="points">
              <mxPoint x="1200" y="-660" />
            </Array>
          </mxGeometry>
        </mxCell>
        <mxCell id="dg7a1gWHMKsd2DPE6517-17" value="" style="endArrow=classic;html=1;rounded=0;fontSize=12;startSize=8;endSize=8;curved=1;entryX=0.5;entryY=1;entryDx=0;entryDy=0;" parent="1" target="InuJppW9Su6g9SX72eop-49" edge="1">
          <mxGeometry relative="1" as="geometry">
            <mxPoint x="1600" y="-330" as="sourcePoint" />
            <mxPoint x="1590" y="-470" as="targetPoint" />
          </mxGeometry>
        </mxCell>
        <mxCell id="dg7a1gWHMKsd2DPE6517-18" value="No" style="edgeLabel;resizable=0;html=1;;align=center;verticalAlign=middle;" parent="dg7a1gWHMKsd2DPE6517-17" connectable="0" vertex="1">
          <mxGeometry relative="1" as="geometry" />
        </mxCell>
        <mxCell id="LG5rg5AmxiLSs1DXIBGO-1" value="TP" style="whiteSpace=wrap;html=1;aspect=fixed;" parent="1" vertex="1">
          <mxGeometry x="2640" y="-200" width="80" height="80" as="geometry" />
        </mxCell>
        <mxCell id="LG5rg5AmxiLSs1DXIBGO-2" value="FP" style="whiteSpace=wrap;html=1;aspect=fixed;" parent="1" vertex="1">
          <mxGeometry x="2720" y="-200" width="80" height="80" as="geometry" />
        </mxCell>
        <mxCell id="LG5rg5AmxiLSs1DXIBGO-3" value="FN" style="whiteSpace=wrap;html=1;aspect=fixed;" parent="1" vertex="1">
          <mxGeometry x="2640" y="-120" width="80" height="80" as="geometry" />
        </mxCell>
        <mxCell id="LG5rg5AmxiLSs1DXIBGO-4" value="TN" style="whiteSpace=wrap;html=1;aspect=fixed;" parent="1" vertex="1">
          <mxGeometry x="2720" y="-120" width="80" height="80" as="geometry" />
        </mxCell>
        <mxCell id="LG5rg5AmxiLSs1DXIBGO-5" value="&lt;font style=&quot;font-size: 13px;&quot;&gt;Actual Values&lt;/font&gt;" style="text;strokeColor=none;fillColor=none;html=1;fontSize=24;fontStyle=1;verticalAlign=middle;align=center;" parent="1" vertex="1">
          <mxGeometry x="2670" y="-280" width="100" height="40" as="geometry" />
        </mxCell>
        <mxCell id="LG5rg5AmxiLSs1DXIBGO-6" value="&lt;font style=&quot;font-size: 13px;&quot;&gt;Predicted Values&lt;/font&gt;" style="text;strokeColor=none;fillColor=none;html=1;fontSize=24;fontStyle=1;verticalAlign=middle;align=center;rotation=-90;" parent="1" vertex="1">
          <mxGeometry x="2530" y="-140" width="100" height="40" as="geometry" />
        </mxCell>
        <UserObject label="Positive&amp;nbsp; &amp;nbsp; &amp;nbsp; &amp;nbsp; &amp;nbsp; &amp;nbsp;Negative" placeholders="1" id="LG5rg5AmxiLSs1DXIBGO-7">
          <mxCell style="text;html=1;strokeColor=none;fillColor=none;align=center;verticalAlign=middle;whiteSpace=wrap;overflow=hidden;" parent="1" vertex="1">
            <mxGeometry x="2640" y="-229.85" width="160" height="20" as="geometry" />
          </mxCell>
        </UserObject>
        <UserObject label="Negative&amp;nbsp; &amp;nbsp; &amp;nbsp; &amp;nbsp; &amp;nbsp; &amp;nbsp;Positive&amp;nbsp;" placeholders="1" id="LG5rg5AmxiLSs1DXIBGO-8">
          <mxCell style="text;html=1;strokeColor=none;fillColor=none;align=center;verticalAlign=middle;whiteSpace=wrap;overflow=hidden;rotation=-90;" parent="1" vertex="1">
            <mxGeometry x="2540" y="-130" width="160" height="20" as="geometry" />
          </mxCell>
        </UserObject>
        <mxCell id="LG5rg5AmxiLSs1DXIBGO-9" value="START" style="rounded=0;whiteSpace=wrap;html=1;" parent="1" vertex="1">
          <mxGeometry x="3320" y="-482.03" width="80" height="32.03" as="geometry" />
        </mxCell>
        <mxCell id="LG5rg5AmxiLSs1DXIBGO-10" value="Input Image(128×128×3)" style="rounded=0;whiteSpace=wrap;html=1;" parent="1" vertex="1">
          <mxGeometry x="3240" y="-430" width="240" height="30" as="geometry" />
        </mxCell>
        <mxCell id="LG5rg5AmxiLSs1DXIBGO-11" value="Convolutional Layer" style="rounded=0;whiteSpace=wrap;html=1;" parent="1" vertex="1">
          <mxGeometry x="3280" y="-380" width="160" height="30" as="geometry" />
        </mxCell>
        <mxCell id="LG5rg5AmxiLSs1DXIBGO-12" value="Batch Normalization" style="rounded=0;whiteSpace=wrap;html=1;" parent="1" vertex="1">
          <mxGeometry x="3280" y="-330" width="160" height="29.71" as="geometry" />
        </mxCell>
        <mxCell id="LG5rg5AmxiLSs1DXIBGO-13" value="ReLU Activation" style="rounded=0;whiteSpace=wrap;html=1;" parent="1" vertex="1">
          <mxGeometry x="3280" y="-280" width="160" height="29.71" as="geometry" />
        </mxCell>
        <mxCell id="LG5rg5AmxiLSs1DXIBGO-14" value="Pooling Layer" style="rounded=0;whiteSpace=wrap;html=1;" parent="1" vertex="1">
          <mxGeometry x="3280" y="-229.85000000000002" width="160" height="29.71" as="geometry" />
        </mxCell>
        <mxCell id="LG5rg5AmxiLSs1DXIBGO-15" value="Repeat Conv → BN → ReLU → Pooling block 1~N times" style="rounded=0;whiteSpace=wrap;html=1;" parent="1" vertex="1">
          <mxGeometry x="3200" y="-179.71" width="320" height="30" as="geometry" />
        </mxCell>
        <mxCell id="LG5rg5AmxiLSs1DXIBGO-16" value="Flatten" style="rounded=0;whiteSpace=wrap;html=1;" parent="1" vertex="1">
          <mxGeometry x="3320" y="-130" width="80" height="30" as="geometry" />
        </mxCell>
        <mxCell id="LG5rg5AmxiLSs1DXIBGO-17" value="Fully Connected Layer" style="rounded=0;whiteSpace=wrap;html=1;" parent="1" vertex="1">
          <mxGeometry x="3280" y="-80" width="160" height="30" as="geometry" />
        </mxCell>
        <mxCell id="LG5rg5AmxiLSs1DXIBGO-18" value="Softmax Output Layer" style="rounded=0;whiteSpace=wrap;html=1;" parent="1" vertex="1">
          <mxGeometry x="3280" y="-30" width="160" height="30" as="geometry" />
        </mxCell>
        <mxCell id="LG5rg5AmxiLSs1DXIBGO-19" value="Prediction / Classification Output&amp;nbsp;" style="rounded=0;whiteSpace=wrap;html=1;" parent="1" vertex="1">
          <mxGeometry x="3240" y="20" width="240" height="30" as="geometry" />
        </mxCell>
        <mxCell id="LG5rg5AmxiLSs1DXIBGO-20" value="END" style="rounded=0;whiteSpace=wrap;html=1;" parent="1" vertex="1">
          <mxGeometry x="3320" y="70" width="80" height="30" as="geometry" />
        </mxCell>
        <mxCell id="LG5rg5AmxiLSs1DXIBGO-21" value="" style="endArrow=classic;html=1;rounded=0;fontSize=12;startSize=8;endSize=8;curved=1;exitX=0.5;exitY=1;exitDx=0;exitDy=0;" parent="1" source="LG5rg5AmxiLSs1DXIBGO-9" target="LG5rg5AmxiLSs1DXIBGO-10" edge="1">
          <mxGeometry width="50" height="50" relative="1" as="geometry">
            <mxPoint x="3370" y="-190" as="sourcePoint" />
            <mxPoint x="3420" y="-240" as="targetPoint" />
          </mxGeometry>
        </mxCell>
        <mxCell id="LG5rg5AmxiLSs1DXIBGO-22" value="" style="endArrow=classic;html=1;rounded=0;fontSize=12;startSize=8;endSize=8;curved=1;exitX=0.5;exitY=1;exitDx=0;exitDy=0;" parent="1" edge="1">
          <mxGeometry width="50" height="50" relative="1" as="geometry">
            <mxPoint x="3359.76" y="-400" as="sourcePoint" />
            <mxPoint x="3359.76" y="-380" as="targetPoint" />
          </mxGeometry>
        </mxCell>
        <mxCell id="LG5rg5AmxiLSs1DXIBGO-23" value="" style="endArrow=classic;html=1;rounded=0;fontSize=12;startSize=8;endSize=8;curved=1;exitX=0.5;exitY=1;exitDx=0;exitDy=0;" parent="1" edge="1">
          <mxGeometry width="50" height="50" relative="1" as="geometry">
            <mxPoint x="3359.76" y="-350" as="sourcePoint" />
            <mxPoint x="3359.76" y="-330" as="targetPoint" />
          </mxGeometry>
        </mxCell>
        <mxCell id="LG5rg5AmxiLSs1DXIBGO-24" value="" style="endArrow=classic;html=1;rounded=0;fontSize=12;startSize=8;endSize=8;curved=1;exitX=0.5;exitY=1;exitDx=0;exitDy=0;" parent="1" edge="1">
          <mxGeometry width="50" height="50" relative="1" as="geometry">
            <mxPoint x="3359.76" y="-300" as="sourcePoint" />
            <mxPoint x="3359.76" y="-280" as="targetPoint" />
          </mxGeometry>
        </mxCell>
        <mxCell id="LG5rg5AmxiLSs1DXIBGO-25" value="" style="endArrow=classic;html=1;rounded=0;fontSize=12;startSize=8;endSize=8;curved=1;exitX=0.5;exitY=1;exitDx=0;exitDy=0;" parent="1" edge="1">
          <mxGeometry width="50" height="50" relative="1" as="geometry">
            <mxPoint x="3359.76" y="-249.85" as="sourcePoint" />
            <mxPoint x="3359.76" y="-229.85" as="targetPoint" />
          </mxGeometry>
        </mxCell>
        <mxCell id="LG5rg5AmxiLSs1DXIBGO-26" value="" style="endArrow=classic;html=1;rounded=0;fontSize=12;startSize=8;endSize=8;curved=1;exitX=0.5;exitY=1;exitDx=0;exitDy=0;" parent="1" edge="1">
          <mxGeometry width="50" height="50" relative="1" as="geometry">
            <mxPoint x="3359.76" y="-200.14" as="sourcePoint" />
            <mxPoint x="3359.76" y="-180.14" as="targetPoint" />
          </mxGeometry>
        </mxCell>
        <mxCell id="LG5rg5AmxiLSs1DXIBGO-27" value="" style="endArrow=classic;html=1;rounded=0;fontSize=12;startSize=8;endSize=8;curved=1;exitX=0.5;exitY=1;exitDx=0;exitDy=0;" parent="1" edge="1">
          <mxGeometry width="50" height="50" relative="1" as="geometry">
            <mxPoint x="3359.76" y="-149.71" as="sourcePoint" />
            <mxPoint x="3359.76" y="-129.71" as="targetPoint" />
          </mxGeometry>
        </mxCell>
        <mxCell id="LG5rg5AmxiLSs1DXIBGO-28" value="" style="endArrow=classic;html=1;rounded=0;fontSize=12;startSize=8;endSize=8;curved=1;exitX=0.5;exitY=1;exitDx=0;exitDy=0;" parent="1" edge="1">
          <mxGeometry width="50" height="50" relative="1" as="geometry">
            <mxPoint x="3359.76" y="-100" as="sourcePoint" />
            <mxPoint x="3359.76" y="-80" as="targetPoint" />
          </mxGeometry>
        </mxCell>
        <mxCell id="LG5rg5AmxiLSs1DXIBGO-29" value="" style="endArrow=classic;html=1;rounded=0;fontSize=12;startSize=8;endSize=8;curved=1;exitX=0.5;exitY=1;exitDx=0;exitDy=0;" parent="1" edge="1">
          <mxGeometry width="50" height="50" relative="1" as="geometry">
            <mxPoint x="3359.76" y="-50" as="sourcePoint" />
            <mxPoint x="3359.76" y="-30" as="targetPoint" />
          </mxGeometry>
        </mxCell>
        <mxCell id="LG5rg5AmxiLSs1DXIBGO-30" value="" style="endArrow=classic;html=1;rounded=0;fontSize=12;startSize=8;endSize=8;curved=1;exitX=0.5;exitY=1;exitDx=0;exitDy=0;" parent="1" edge="1">
          <mxGeometry width="50" height="50" relative="1" as="geometry">
            <mxPoint x="3359.76" as="sourcePoint" />
            <mxPoint x="3359.76" y="20" as="targetPoint" />
          </mxGeometry>
        </mxCell>
        <mxCell id="LG5rg5AmxiLSs1DXIBGO-31" value="" style="endArrow=classic;html=1;rounded=0;fontSize=12;startSize=8;endSize=8;curved=1;exitX=0.5;exitY=1;exitDx=0;exitDy=0;" parent="1" edge="1">
          <mxGeometry width="50" height="50" relative="1" as="geometry">
            <mxPoint x="3359.76" y="50" as="sourcePoint" />
            <mxPoint x="3359.76" y="70" as="targetPoint" />
          </mxGeometry>
        </mxCell>
        <mxCell id="IqW5e6WF8m7TNx2hkUa_-7" value="" style="strokeWidth=2;html=1;shape=mxgraph.flowchart.annotation_2;align=left;labelPosition=right;pointerEvents=1;" vertex="1" parent="1">
          <mxGeometry x="724" y="-65" width="50" height="100" as="geometry" />
        </mxCell>
        <mxCell id="IqW5e6WF8m7TNx2hkUa_-8" value="" style="endArrow=classic;html=1;rounded=0;" edge="1" parent="1">
          <mxGeometry relative="1" as="geometry">
            <mxPoint x="879.75" y="23" as="sourcePoint" />
            <mxPoint x="979.75" y="23" as="targetPoint" />
          </mxGeometry>
        </mxCell>
        <mxCell id="IqW5e6WF8m7TNx2hkUa_-9" value="Label" style="edgeLabel;resizable=0;html=1;;align=center;verticalAlign=middle;" connectable="0" vertex="1" parent="IqW5e6WF8m7TNx2hkUa_-8">
          <mxGeometry relative="1" as="geometry" />
        </mxCell>
      </root>
    </mxGraphModel>
  </diagram>
  <diagram id="E85wKpHGF6E4nzb_oFuX" name="第 2 页">
    <mxGraphModel dx="1055" dy="1510" grid="0" gridSize="10" guides="1" tooltips="1" connect="1" arrows="1" fold="1" page="0" pageScale="1" pageWidth="827" pageHeight="1169" math="0" shadow="0">
      <root>
        <mxCell id="0" />
        <mxCell id="1" parent="0" />
        <mxCell id="UmMJzBpT5TzHi9CVxHFJ-1" value="Current Velocity (v,w)" style="rounded=0;whiteSpace=wrap;html=1;" vertex="1" parent="1">
          <mxGeometry x="800" y="-680" width="160" height="40" as="geometry" />
        </mxCell>
        <mxCell id="UmMJzBpT5TzHi9CVxHFJ-2" value="Dynamic Window&lt;div&gt;(Set of feasible(v,w))&lt;/div&gt;" style="rounded=0;whiteSpace=wrap;html=1;" vertex="1" parent="1">
          <mxGeometry x="800" y="-600" width="160" height="40" as="geometry" />
        </mxCell>
        <mxCell id="UmMJzBpT5TzHi9CVxHFJ-3" value="Generated based on acceleration limits" style="rounded=0;whiteSpace=wrap;html=1;" vertex="1" parent="1">
          <mxGeometry x="1010" y="-600" width="160" height="40" as="geometry" />
        </mxCell>
        <mxCell id="UmMJzBpT5TzHi9CVxHFJ-4" value="For each (v,w) candidate:" style="rounded=0;whiteSpace=wrap;html=1;" vertex="1" parent="1">
          <mxGeometry x="800" y="-519" width="160" height="40" as="geometry" />
        </mxCell>
        <mxCell id="UmMJzBpT5TzHi9CVxHFJ-5" value="&lt;ul&gt;&lt;li&gt;Simulate short-term trajectory&lt;/li&gt;&lt;li&gt;Evaluate cost function&lt;/li&gt;&lt;li&gt;Select optimal trajectory&lt;/li&gt;&lt;/ul&gt;" style="text;strokeColor=none;fillColor=none;html=1;whiteSpace=wrap;verticalAlign=middle;overflow=hidden;" vertex="1" parent="1">
          <mxGeometry x="770" y="-489" width="230" height="80" as="geometry" />
        </mxCell>
        <mxCell id="UmMJzBpT5TzHi9CVxHFJ-6" value="Execute optimal control(v*,w*)" style="rounded=0;whiteSpace=wrap;html=1;" vertex="1" parent="1">
          <mxGeometry x="800" y="-390" width="160" height="40" as="geometry" />
        </mxCell>
        <mxCell id="UmMJzBpT5TzHi9CVxHFJ-9" value="" style="endArrow=classic;html=1;rounded=0;fontSize=12;startSize=8;endSize=8;curved=1;exitX=0.5;exitY=1;exitDx=0;exitDy=0;" edge="1" parent="1" source="UmMJzBpT5TzHi9CVxHFJ-1" target="UmMJzBpT5TzHi9CVxHFJ-2">
          <mxGeometry width="50" height="50" relative="1" as="geometry">
            <mxPoint x="880" y="-370" as="sourcePoint" />
            <mxPoint x="930" y="-420" as="targetPoint" />
          </mxGeometry>
        </mxCell>
        <mxCell id="UmMJzBpT5TzHi9CVxHFJ-10" value="" style="endArrow=classic;html=1;rounded=0;fontSize=12;startSize=8;endSize=8;curved=1;exitX=0.5;exitY=1;exitDx=0;exitDy=0;" edge="1" parent="1">
          <mxGeometry width="50" height="50" relative="1" as="geometry">
            <mxPoint x="879.5" y="-560" as="sourcePoint" />
            <mxPoint x="879.5" y="-520" as="targetPoint" />
          </mxGeometry>
        </mxCell>
        <mxCell id="UmMJzBpT5TzHi9CVxHFJ-11" value="" style="endArrow=classic;html=1;rounded=0;fontSize=12;startSize=8;endSize=8;curved=1;exitX=0.5;exitY=1;exitDx=0;exitDy=0;" edge="1" parent="1">
          <mxGeometry width="50" height="50" relative="1" as="geometry">
            <mxPoint x="879.5" y="-430" as="sourcePoint" />
            <mxPoint x="879.5" y="-390" as="targetPoint" />
          </mxGeometry>
        </mxCell>
        <mxCell id="UmMJzBpT5TzHi9CVxHFJ-12" value="" style="endArrow=classic;html=1;rounded=0;fontSize=12;startSize=8;endSize=8;curved=1;entryX=1;entryY=0.5;entryDx=0;entryDy=0;exitX=0;exitY=0.5;exitDx=0;exitDy=0;" edge="1" parent="1" source="UmMJzBpT5TzHi9CVxHFJ-3" target="UmMJzBpT5TzHi9CVxHFJ-2">
          <mxGeometry width="50" height="50" relative="1" as="geometry">
            <mxPoint x="880" y="-370" as="sourcePoint" />
            <mxPoint x="930" y="-420" as="targetPoint" />
          </mxGeometry>
        </mxCell>
        <mxCell id="UmMJzBpT5TzHi9CVxHFJ-13" value="Start Node" style="rounded=0;whiteSpace=wrap;html=1;" vertex="1" parent="1">
          <mxGeometry x="540" y="40" width="120" height="40" as="geometry" />
        </mxCell>
        <mxCell id="UmMJzBpT5TzHi9CVxHFJ-14" value="Initialize Open Sets" style="rounded=0;whiteSpace=wrap;html=1;" vertex="1" parent="1">
          <mxGeometry x="440" y="120" width="120" height="40" as="geometry" />
        </mxCell>
        <mxCell id="UmMJzBpT5TzHi9CVxHFJ-15" value="Initialize Close Sets" style="rounded=0;whiteSpace=wrap;html=1;" vertex="1" parent="1">
          <mxGeometry x="620" y="120" width="120" height="40" as="geometry" />
        </mxCell>
        <mxCell id="UmMJzBpT5TzHi9CVxHFJ-16" value="Open Set is not empty" style="rounded=0;whiteSpace=wrap;html=1;" vertex="1" parent="1">
          <mxGeometry x="420" y="200" width="160" height="40" as="geometry" />
        </mxCell>
        <mxCell id="UmMJzBpT5TzHi9CVxHFJ-32" value="" style="edgeStyle=none;curved=1;rounded=0;orthogonalLoop=1;jettySize=auto;html=1;fontSize=12;startSize=8;endSize=8;" edge="1" parent="1" source="UmMJzBpT5TzHi9CVxHFJ-17" target="UmMJzBpT5TzHi9CVxHFJ-19">
          <mxGeometry relative="1" as="geometry" />
        </mxCell>
        <mxCell id="UmMJzBpT5TzHi9CVxHFJ-17" value="Select node n with lowest f(n) = g(n) + h(n)" style="rounded=0;whiteSpace=wrap;html=1;" vertex="1" parent="1">
          <mxGeometry x="400" y="280" width="200" height="40" as="geometry" />
        </mxCell>
        <mxCell id="UmMJzBpT5TzHi9CVxHFJ-33" value="" style="edgeStyle=none;curved=1;rounded=0;orthogonalLoop=1;jettySize=auto;html=1;fontSize=12;startSize=8;endSize=8;" edge="1" parent="1" source="UmMJzBpT5TzHi9CVxHFJ-18" target="UmMJzBpT5TzHi9CVxHFJ-20">
          <mxGeometry relative="1" as="geometry" />
        </mxCell>
        <mxCell id="UmMJzBpT5TzHi9CVxHFJ-18" value="Is n the goal?" style="rhombus;whiteSpace=wrap;html=1;" vertex="1" parent="1">
          <mxGeometry x="435" y="360" width="130" height="40" as="geometry" />
        </mxCell>
        <mxCell id="UmMJzBpT5TzHi9CVxHFJ-19" value="Yes" style="rounded=0;whiteSpace=wrap;html=1;" vertex="1" parent="1">
          <mxGeometry x="460" y="440" width="80" height="40" as="geometry" />
        </mxCell>
        <mxCell id="UmMJzBpT5TzHi9CVxHFJ-20" value="No" style="rounded=0;whiteSpace=wrap;html=1;" vertex="1" parent="1">
          <mxGeometry x="640" y="360" width="80" height="40" as="geometry" />
        </mxCell>
        <mxCell id="UmMJzBpT5TzHi9CVxHFJ-21" value="Return path" style="rounded=0;whiteSpace=wrap;html=1;" vertex="1" parent="1">
          <mxGeometry x="460" y="520" width="80" height="40" as="geometry" />
        </mxCell>
        <mxCell id="UmMJzBpT5TzHi9CVxHFJ-22" value="" style="endArrow=classic;html=1;rounded=0;fontSize=12;startSize=8;endSize=8;curved=1;entryX=0.5;entryY=1;entryDx=0;entryDy=0;exitX=0.5;exitY=0;exitDx=0;exitDy=0;" edge="1" parent="1" source="UmMJzBpT5TzHi9CVxHFJ-20" target="UmMJzBpT5TzHi9CVxHFJ-15">
          <mxGeometry relative="1" as="geometry">
            <mxPoint x="580" y="360" as="sourcePoint" />
            <mxPoint x="680" y="360" as="targetPoint" />
          </mxGeometry>
        </mxCell>
        <mxCell id="UmMJzBpT5TzHi9CVxHFJ-23" value="n" style="edgeLabel;resizable=0;html=1;;align=center;verticalAlign=middle;" connectable="0" vertex="1" parent="UmMJzBpT5TzHi9CVxHFJ-22">
          <mxGeometry relative="1" as="geometry" />
        </mxCell>
        <mxCell id="UmMJzBpT5TzHi9CVxHFJ-24" value="For each neighbor of n" style="rounded=0;whiteSpace=wrap;html=1;" vertex="1" parent="1">
          <mxGeometry x="780" y="120" width="140" height="40" as="geometry" />
        </mxCell>
        <mxCell id="UmMJzBpT5TzHi9CVxHFJ-25" value="&lt;ul&gt;&lt;li&gt;If in Closed Set : Skip&lt;/li&gt;&lt;li&gt;If in Open set with better g : Skip&lt;/li&gt;&lt;li&gt;Else: Update g(n), h(n), f(n); Set parent; Add to Open Set&lt;/li&gt;&lt;/ul&gt;" style="text;strokeColor=none;fillColor=none;html=1;whiteSpace=wrap;verticalAlign=middle;overflow=hidden;" vertex="1" parent="1">
          <mxGeometry x="760" y="160" width="270" height="80" as="geometry" />
        </mxCell>
        <mxCell id="UmMJzBpT5TzHi9CVxHFJ-26" value="" style="strokeWidth=2;html=1;shape=mxgraph.flowchart.annotation_2;align=left;labelPosition=right;pointerEvents=1;rotation=90;" vertex="1" parent="1">
          <mxGeometry x="569.69" y="9.05" width="41.87" height="183.75" as="geometry" />
        </mxCell>
        <mxCell id="UmMJzBpT5TzHi9CVxHFJ-28" value="" style="endArrow=classic;html=1;rounded=0;fontSize=12;startSize=8;endSize=8;curved=1;exitX=0.5;exitY=1;exitDx=0;exitDy=0;entryX=0.5;entryY=0;entryDx=0;entryDy=0;" edge="1" parent="1" source="UmMJzBpT5TzHi9CVxHFJ-14" target="UmMJzBpT5TzHi9CVxHFJ-16">
          <mxGeometry width="50" height="50" relative="1" as="geometry">
            <mxPoint x="740" y="450" as="sourcePoint" />
            <mxPoint x="790" y="400" as="targetPoint" />
          </mxGeometry>
        </mxCell>
        <mxCell id="UmMJzBpT5TzHi9CVxHFJ-31" value="" style="endArrow=classic;html=1;rounded=0;fontSize=12;startSize=8;endSize=8;curved=1;exitX=0.5;exitY=1;exitDx=0;exitDy=0;" edge="1" parent="1" source="UmMJzBpT5TzHi9CVxHFJ-16" target="UmMJzBpT5TzHi9CVxHFJ-17">
          <mxGeometry width="50" height="50" relative="1" as="geometry">
            <mxPoint x="920" y="550" as="sourcePoint" />
            <mxPoint x="770" y="540" as="targetPoint" />
          </mxGeometry>
        </mxCell>
        <mxCell id="UmMJzBpT5TzHi9CVxHFJ-37" value="" style="endArrow=classic;html=1;rounded=0;fontSize=12;startSize=8;endSize=8;curved=1;entryX=0;entryY=0.5;entryDx=0;entryDy=0;exitX=1;exitY=0.5;exitDx=0;exitDy=0;" edge="1" parent="1" source="UmMJzBpT5TzHi9CVxHFJ-15" target="UmMJzBpT5TzHi9CVxHFJ-24">
          <mxGeometry width="50" height="50" relative="1" as="geometry">
            <mxPoint x="740" y="450" as="sourcePoint" />
            <mxPoint x="790" y="400" as="targetPoint" />
          </mxGeometry>
        </mxCell>
        <mxCell id="UmMJzBpT5TzHi9CVxHFJ-38" value="" style="endArrow=classic;html=1;rounded=0;fontSize=12;startSize=8;endSize=8;curved=1;exitX=0.5;exitY=1;exitDx=0;exitDy=0;entryX=0.5;entryY=0;entryDx=0;entryDy=0;" edge="1" parent="1" source="UmMJzBpT5TzHi9CVxHFJ-19" target="UmMJzBpT5TzHi9CVxHFJ-21">
          <mxGeometry width="50" height="50" relative="1" as="geometry">
            <mxPoint x="740" y="450" as="sourcePoint" />
            <mxPoint x="790" y="400" as="targetPoint" />
          </mxGeometry>
        </mxCell>
        <mxCell id="UmMJzBpT5TzHi9CVxHFJ-39" value="map" style="rounded=0;whiteSpace=wrap;html=1;" vertex="1" parent="1">
          <mxGeometry x="400" y="1280" width="80" height="40" as="geometry" />
        </mxCell>
        <mxCell id="UmMJzBpT5TzHi9CVxHFJ-40" value="odom" style="rounded=0;whiteSpace=wrap;html=1;" vertex="1" parent="1">
          <mxGeometry x="400" y="1360" width="80" height="40" as="geometry" />
        </mxCell>
        <mxCell id="UmMJzBpT5TzHi9CVxHFJ-41" value="base_link" style="rounded=0;whiteSpace=wrap;html=1;" vertex="1" parent="1">
          <mxGeometry x="400" y="1440" width="80" height="40" as="geometry" />
        </mxCell>
        <mxCell id="UmMJzBpT5TzHi9CVxHFJ-42" value="laser" style="rounded=0;whiteSpace=wrap;html=1;" vertex="1" parent="1">
          <mxGeometry x="520" y="1480" width="80" height="40" as="geometry" />
        </mxCell>
        <mxCell id="UmMJzBpT5TzHi9CVxHFJ-43" value="camera_link" style="rounded=0;whiteSpace=wrap;html=1;" vertex="1" parent="1">
          <mxGeometry x="520" y="1400" width="80" height="40" as="geometry" />
        </mxCell>
        <mxCell id="UmMJzBpT5TzHi9CVxHFJ-46" value="" style="endArrow=classic;html=1;rounded=0;fontSize=12;startSize=8;endSize=8;curved=1;exitX=0.5;exitY=1;exitDx=0;exitDy=0;entryX=0.5;entryY=0;entryDx=0;entryDy=0;" edge="1" parent="1" source="UmMJzBpT5TzHi9CVxHFJ-39" target="UmMJzBpT5TzHi9CVxHFJ-40">
          <mxGeometry width="50" height="50" relative="1" as="geometry">
            <mxPoint x="500" y="1420" as="sourcePoint" />
            <mxPoint x="550" y="1370" as="targetPoint" />
          </mxGeometry>
        </mxCell>
        <mxCell id="UmMJzBpT5TzHi9CVxHFJ-47" value="" style="endArrow=classic;html=1;rounded=0;fontSize=12;startSize=8;endSize=8;curved=1;exitX=0.5;exitY=1;exitDx=0;exitDy=0;entryX=0.5;entryY=0;entryDx=0;entryDy=0;" edge="1" parent="1" target="UmMJzBpT5TzHi9CVxHFJ-41">
          <mxGeometry width="50" height="50" relative="1" as="geometry">
            <mxPoint x="440" y="1400" as="sourcePoint" />
            <mxPoint x="440" y="1440" as="targetPoint" />
          </mxGeometry>
        </mxCell>
        <mxCell id="UmMJzBpT5TzHi9CVxHFJ-48" value="" style="strokeWidth=2;html=1;shape=mxgraph.flowchart.annotation_2;align=left;labelPosition=right;pointerEvents=1;" vertex="1" parent="1">
          <mxGeometry x="480" y="1410" width="40" height="100" as="geometry" />
        </mxCell>
        <mxCell id="UmMJzBpT5TzHi9CVxHFJ-49" value="Initialize ROS system and connect to master" style="rounded=0;whiteSpace=wrap;html=1;" vertex="1" parent="1">
          <mxGeometry x="280" y="1680" width="320" height="30" as="geometry" />
        </mxCell>
        <mxCell id="UmMJzBpT5TzHi9CVxHFJ-50" value="Load/map and build occupancy grid map" style="rounded=0;whiteSpace=wrap;html=1;" vertex="1" parent="1">
          <mxGeometry x="280" y="1730" width="320" height="30" as="geometry" />
        </mxCell>
        <mxCell id="UmMJzBpT5TzHi9CVxHFJ-51" value="Get start and goal poses" style="rounded=0;whiteSpace=wrap;html=1;" vertex="1" parent="1">
          <mxGeometry x="280" y="1780" width="320" height="30" as="geometry" />
        </mxCell>
        <mxCell id="UmMJzBpT5TzHi9CVxHFJ-52" value="Perform global A* path planning" style="rounded=0;whiteSpace=wrap;html=1;" vertex="1" parent="1">
          <mxGeometry x="280" y="1830" width="320" height="30" as="geometry" />
        </mxCell>
        <mxCell id="UmMJzBpT5TzHi9CVxHFJ-53" value="Compute and smooth orientation angles for each waypoint" style="rounded=0;whiteSpace=wrap;html=1;" vertex="1" parent="1">
          <mxGeometry x="280" y="1880" width="320" height="30" as="geometry" />
        </mxCell>
        <mxCell id="UmMJzBpT5TzHi9CVxHFJ-54" value="Filter out waypoints with distance &amp;lt; 0.05m" style="rounded=0;whiteSpace=wrap;html=1;" vertex="1" parent="1">
          <mxGeometry x="280" y="1930" width="320" height="30" as="geometry" />
        </mxCell>
        <mxCell id="UmMJzBpT5TzHi9CVxHFJ-55" value="Create move_base action client and subscribe to feedback" style="rounded=0;whiteSpace=wrap;html=1;" vertex="1" parent="1">
          <mxGeometry x="280" y="1980" width="320" height="30" as="geometry" />
        </mxCell>
        <mxCell id="UmMJzBpT5TzHi9CVxHFJ-56" value="Start sending waypoints one by one to move_base" style="rounded=0;whiteSpace=wrap;html=1;" vertex="1" parent="1">
          <mxGeometry x="280" y="2030" width="320" height="30" as="geometry" />
        </mxCell>
        <mxCell id="UmMJzBpT5TzHi9CVxHFJ-57" value="In callback, update robot pose via /move_base/feedback and draw real-time trajectory" style="rounded=0;whiteSpace=wrap;html=1;" vertex="1" parent="1">
          <mxGeometry x="280" y="2080" width="320" height="30" as="geometry" />
        </mxCell>
        <mxCell id="UmMJzBpT5TzHi9CVxHFJ-58" value="After all waypoint completed, shut down ROS" style="rounded=0;whiteSpace=wrap;html=1;" vertex="1" parent="1">
          <mxGeometry x="280" y="2130" width="320" height="30" as="geometry" />
        </mxCell>
        <mxCell id="UmMJzBpT5TzHi9CVxHFJ-59" value="" style="shape=curlyBracket;whiteSpace=wrap;html=1;rounded=1;labelPosition=left;verticalLabelPosition=middle;align=right;verticalAlign=middle;" vertex="1" parent="1">
          <mxGeometry x="611.56" y="1985" width="20" height="120" as="geometry" />
        </mxCell>
        <mxCell id="UmMJzBpT5TzHi9CVxHFJ-60" value="&lt;ul&gt;&lt;li&gt;Build Pose Stamped goal messages (x,y,theta → 0)&amp;nbsp;&lt;/li&gt;&lt;/ul&gt;&lt;div&gt;&lt;br&gt;&lt;/div&gt;&lt;ul&gt;&lt;li&gt;Retry up to 10 times, terminate if all fail&lt;/li&gt;&lt;/ul&gt;&lt;div&gt;&lt;br&gt;&lt;/div&gt;&lt;ul&gt;&lt;li&gt;Check TF (map → base_link) after each attempt&lt;/li&gt;&lt;/ul&gt;" style="text;strokeColor=none;fillColor=none;html=1;whiteSpace=wrap;verticalAlign=middle;overflow=hidden;" vertex="1" parent="1">
          <mxGeometry x="620" y="1970" width="330" height="150" as="geometry" />
        </mxCell>
        <mxCell id="UmMJzBpT5TzHi9CVxHFJ-63" value="" style="endArrow=classic;html=1;rounded=0;fontSize=12;startSize=8;endSize=8;curved=1;exitX=0.5;exitY=1;exitDx=0;exitDy=0;" edge="1" parent="1" source="UmMJzBpT5TzHi9CVxHFJ-49" target="UmMJzBpT5TzHi9CVxHFJ-50">
          <mxGeometry width="50" height="50" relative="1" as="geometry">
            <mxPoint x="849" y="1974" as="sourcePoint" />
            <mxPoint x="899" y="1924" as="targetPoint" />
          </mxGeometry>
        </mxCell>
        <mxCell id="UmMJzBpT5TzHi9CVxHFJ-64" value="" style="endArrow=classic;html=1;rounded=0;fontSize=12;startSize=8;endSize=8;curved=1;exitX=0.5;exitY=1;exitDx=0;exitDy=0;" edge="1" parent="1" source="UmMJzBpT5TzHi9CVxHFJ-50" target="UmMJzBpT5TzHi9CVxHFJ-51">
          <mxGeometry width="50" height="50" relative="1" as="geometry">
            <mxPoint x="849" y="1974" as="sourcePoint" />
            <mxPoint x="899" y="1924" as="targetPoint" />
          </mxGeometry>
        </mxCell>
        <mxCell id="UmMJzBpT5TzHi9CVxHFJ-65" value="" style="endArrow=classic;html=1;rounded=0;fontSize=12;startSize=8;endSize=8;curved=1;exitX=0.5;exitY=1;exitDx=0;exitDy=0;entryX=0.5;entryY=0;entryDx=0;entryDy=0;" edge="1" parent="1" source="UmMJzBpT5TzHi9CVxHFJ-51" target="UmMJzBpT5TzHi9CVxHFJ-52">
          <mxGeometry width="50" height="50" relative="1" as="geometry">
            <mxPoint x="758" y="1955" as="sourcePoint" />
            <mxPoint x="808" y="1905" as="targetPoint" />
          </mxGeometry>
        </mxCell>
        <mxCell id="UmMJzBpT5TzHi9CVxHFJ-66" value="" style="endArrow=classic;html=1;rounded=0;fontSize=12;startSize=8;endSize=8;curved=1;exitX=0.5;exitY=1;exitDx=0;exitDy=0;" edge="1" parent="1" source="UmMJzBpT5TzHi9CVxHFJ-52" target="UmMJzBpT5TzHi9CVxHFJ-53">
          <mxGeometry width="50" height="50" relative="1" as="geometry">
            <mxPoint x="758" y="1955" as="sourcePoint" />
            <mxPoint x="808" y="1905" as="targetPoint" />
          </mxGeometry>
        </mxCell>
        <mxCell id="UmMJzBpT5TzHi9CVxHFJ-67" value="" style="endArrow=classic;html=1;rounded=0;fontSize=12;startSize=8;endSize=8;curved=1;exitX=0.5;exitY=1;exitDx=0;exitDy=0;entryX=0.5;entryY=0;entryDx=0;entryDy=0;" edge="1" parent="1" source="UmMJzBpT5TzHi9CVxHFJ-53" target="UmMJzBpT5TzHi9CVxHFJ-54">
          <mxGeometry width="50" height="50" relative="1" as="geometry">
            <mxPoint x="709" y="1955" as="sourcePoint" />
            <mxPoint x="759" y="1905" as="targetPoint" />
          </mxGeometry>
        </mxCell>
        <mxCell id="UmMJzBpT5TzHi9CVxHFJ-68" value="" style="endArrow=classic;html=1;rounded=0;fontSize=12;startSize=8;endSize=8;curved=1;exitX=0.5;exitY=1;exitDx=0;exitDy=0;entryX=0.5;entryY=0;entryDx=0;entryDy=0;" edge="1" parent="1" source="UmMJzBpT5TzHi9CVxHFJ-54" target="UmMJzBpT5TzHi9CVxHFJ-55">
          <mxGeometry width="50" height="50" relative="1" as="geometry">
            <mxPoint x="709" y="1955" as="sourcePoint" />
            <mxPoint x="759" y="1905" as="targetPoint" />
          </mxGeometry>
        </mxCell>
        <mxCell id="UmMJzBpT5TzHi9CVxHFJ-69" value="" style="endArrow=classic;html=1;rounded=0;fontSize=12;startSize=8;endSize=8;curved=1;exitX=0.5;exitY=1;exitDx=0;exitDy=0;" edge="1" parent="1" source="UmMJzBpT5TzHi9CVxHFJ-55" target="UmMJzBpT5TzHi9CVxHFJ-56">
          <mxGeometry width="50" height="50" relative="1" as="geometry">
            <mxPoint x="709" y="1955" as="sourcePoint" />
            <mxPoint x="759" y="1905" as="targetPoint" />
          </mxGeometry>
        </mxCell>
        <mxCell id="UmMJzBpT5TzHi9CVxHFJ-70" value="" style="endArrow=classic;html=1;rounded=0;fontSize=12;startSize=8;endSize=8;curved=1;exitX=0.5;exitY=1;exitDx=0;exitDy=0;" edge="1" parent="1" source="UmMJzBpT5TzHi9CVxHFJ-56" target="UmMJzBpT5TzHi9CVxHFJ-57">
          <mxGeometry width="50" height="50" relative="1" as="geometry">
            <mxPoint x="703" y="1955" as="sourcePoint" />
            <mxPoint x="753" y="1905" as="targetPoint" />
          </mxGeometry>
        </mxCell>
        <mxCell id="UmMJzBpT5TzHi9CVxHFJ-71" value="" style="endArrow=classic;html=1;rounded=0;fontSize=12;startSize=8;endSize=8;curved=1;exitX=0.5;exitY=1;exitDx=0;exitDy=0;entryX=0.5;entryY=0;entryDx=0;entryDy=0;" edge="1" parent="1" source="UmMJzBpT5TzHi9CVxHFJ-57" target="UmMJzBpT5TzHi9CVxHFJ-58">
          <mxGeometry width="50" height="50" relative="1" as="geometry">
            <mxPoint x="703" y="1955" as="sourcePoint" />
            <mxPoint x="753" y="1905" as="targetPoint" />
          </mxGeometry>
        </mxCell>
        <mxCell id="UmMJzBpT5TzHi9CVxHFJ-72" value="Sensor Layer" style="rounded=0;whiteSpace=wrap;html=1;" vertex="1" parent="1">
          <mxGeometry x="400" y="2440" width="120" height="40" as="geometry" />
        </mxCell>
        <mxCell id="UmMJzBpT5TzHi9CVxHFJ-82" value="Perception Module" style="rounded=0;whiteSpace=wrap;html=1;" vertex="1" parent="1">
          <mxGeometry x="401.56" y="2520" width="118.44" height="40" as="geometry" />
        </mxCell>
        <mxCell id="UmMJzBpT5TzHi9CVxHFJ-83" value="&lt;div&gt;&amp;nbsp; &amp;nbsp; &amp;nbsp; &amp;nbsp; &amp;nbsp;Sensor Fusion&lt;/div&gt;&lt;div&gt;&amp;nbsp; &amp;nbsp; &amp;nbsp; &amp;nbsp; &amp;nbsp;Obstacle Detection&lt;/div&gt;&lt;div&gt;&amp;nbsp; &amp;nbsp; &amp;nbsp; &amp;nbsp; &amp;nbsp;Semantic Understanding&lt;/div&gt;" style="text;strokeColor=none;fillColor=none;html=1;whiteSpace=wrap;verticalAlign=middle;overflow=hidden;" vertex="1" parent="1">
          <mxGeometry x="500" y="2500" width="200" height="80" as="geometry" />
        </mxCell>
        <mxCell id="UmMJzBpT5TzHi9CVxHFJ-84" value="Prediction Module" style="rounded=0;whiteSpace=wrap;html=1;" vertex="1" parent="1">
          <mxGeometry x="400" y="2600" width="120" height="40" as="geometry" />
        </mxCell>
        <mxCell id="UmMJzBpT5TzHi9CVxHFJ-85" value="Planning Module" style="rounded=0;whiteSpace=wrap;html=1;" vertex="1" parent="1">
          <mxGeometry x="400" y="2680" width="120" height="40" as="geometry" />
        </mxCell>
        <mxCell id="UmMJzBpT5TzHi9CVxHFJ-86" value="Control System" style="rounded=0;whiteSpace=wrap;html=1;" vertex="1" parent="1">
          <mxGeometry x="401.56" y="2760" width="118.44" height="40" as="geometry" />
        </mxCell>
        <mxCell id="UmMJzBpT5TzHi9CVxHFJ-87" value="Actuators" style="rounded=0;whiteSpace=wrap;html=1;" vertex="1" parent="1">
          <mxGeometry x="400" y="2840" width="120" height="40" as="geometry" />
        </mxCell>
        <mxCell id="UmMJzBpT5TzHi9CVxHFJ-88" value="Vehicle Movement" style="rounded=0;whiteSpace=wrap;html=1;" vertex="1" parent="1">
          <mxGeometry x="400" y="2920" width="119.44" height="41" as="geometry" />
        </mxCell>
        <mxCell id="UmMJzBpT5TzHi9CVxHFJ-90" value="&lt;div&gt;LiDAR&lt;/div&gt;&lt;div&gt;mmWave Radar&lt;/div&gt;&lt;div&gt;RGB Camera&lt;/div&gt;&lt;div&gt;GPS/IMU&lt;/div&gt;" style="text;strokeColor=none;fillColor=none;html=1;whiteSpace=wrap;verticalAlign=middle;overflow=hidden;" vertex="1" parent="1">
          <mxGeometry x="531.56" y="2420" width="100" height="80" as="geometry" />
        </mxCell>
        <mxCell id="UmMJzBpT5TzHi9CVxHFJ-94" value="&lt;div&gt;Trajectory Forecast&lt;/div&gt;" style="text;strokeColor=none;fillColor=none;html=1;whiteSpace=wrap;verticalAlign=middle;overflow=hidden;" vertex="1" parent="1">
          <mxGeometry x="525.63" y="2580" width="130" height="80" as="geometry" />
        </mxCell>
        <mxCell id="UmMJzBpT5TzHi9CVxHFJ-95" value="&lt;div&gt;Path Planning&lt;/div&gt;" style="text;strokeColor=none;fillColor=none;html=1;whiteSpace=wrap;verticalAlign=middle;overflow=hidden;" vertex="1" parent="1">
          <mxGeometry x="525.63" y="2660" width="100" height="80" as="geometry" />
        </mxCell>
        <mxCell id="UmMJzBpT5TzHi9CVxHFJ-96" value="&lt;div&gt;High-level Control&lt;/div&gt;&lt;div&gt;Low-level Control&lt;/div&gt;" style="text;strokeColor=none;fillColor=none;html=1;whiteSpace=wrap;verticalAlign=middle;overflow=hidden;" vertex="1" parent="1">
          <mxGeometry x="525.63" y="2740" width="100" height="80" as="geometry" />
        </mxCell>
        <mxCell id="UmMJzBpT5TzHi9CVxHFJ-97" value="&lt;div&gt;Steer-by -Wire&lt;/div&gt;&lt;div&gt;Brake- by- Wire&lt;/div&gt;&lt;div&gt;Drive Module&lt;/div&gt;" style="text;strokeColor=none;fillColor=none;html=1;whiteSpace=wrap;verticalAlign=middle;overflow=hidden;" vertex="1" parent="1">
          <mxGeometry x="525.63" y="2820" width="100" height="80" as="geometry" />
        </mxCell>
        <mxCell id="UmMJzBpT5TzHi9CVxHFJ-98" value="" style="endArrow=classic;html=1;rounded=0;fontSize=12;startSize=8;endSize=8;curved=1;exitX=0.5;exitY=1;exitDx=0;exitDy=0;entryX=0.5;entryY=0;entryDx=0;entryDy=0;" edge="1" parent="1" source="UmMJzBpT5TzHi9CVxHFJ-72" target="UmMJzBpT5TzHi9CVxHFJ-82">
          <mxGeometry width="50" height="50" relative="1" as="geometry">
            <mxPoint x="470" y="2720" as="sourcePoint" />
            <mxPoint x="520" y="2670" as="targetPoint" />
          </mxGeometry>
        </mxCell>
        <mxCell id="UmMJzBpT5TzHi9CVxHFJ-99" value="" style="endArrow=classic;html=1;rounded=0;fontSize=12;startSize=8;endSize=8;curved=1;exitX=0.5;exitY=1;exitDx=0;exitDy=0;entryX=0.5;entryY=0;entryDx=0;entryDy=0;" edge="1" parent="1">
          <mxGeometry width="50" height="50" relative="1" as="geometry">
            <mxPoint x="459" y="2560" as="sourcePoint" />
            <mxPoint x="460" y="2600" as="targetPoint" />
          </mxGeometry>
        </mxCell>
        <mxCell id="UmMJzBpT5TzHi9CVxHFJ-100" value="" style="endArrow=classic;html=1;rounded=0;fontSize=12;startSize=8;endSize=8;curved=1;exitX=0.5;exitY=1;exitDx=0;exitDy=0;entryX=0.5;entryY=0;entryDx=0;entryDy=0;" edge="1" parent="1">
          <mxGeometry width="50" height="50" relative="1" as="geometry">
            <mxPoint x="460" y="2640" as="sourcePoint" />
            <mxPoint x="461" y="2680" as="targetPoint" />
          </mxGeometry>
        </mxCell>
        <mxCell id="UmMJzBpT5TzHi9CVxHFJ-101" value="" style="endArrow=classic;html=1;rounded=0;fontSize=12;startSize=8;endSize=8;curved=1;exitX=0.5;exitY=1;exitDx=0;exitDy=0;entryX=0.5;entryY=0;entryDx=0;entryDy=0;" edge="1" parent="1">
          <mxGeometry width="50" height="50" relative="1" as="geometry">
            <mxPoint x="460" y="2720" as="sourcePoint" />
            <mxPoint x="461" y="2760" as="targetPoint" />
          </mxGeometry>
        </mxCell>
        <mxCell id="UmMJzBpT5TzHi9CVxHFJ-102" value="" style="endArrow=classic;html=1;rounded=0;fontSize=12;startSize=8;endSize=8;curved=1;exitX=0.5;exitY=1;exitDx=0;exitDy=0;entryX=0.5;entryY=0;entryDx=0;entryDy=0;" edge="1" parent="1">
          <mxGeometry width="50" height="50" relative="1" as="geometry">
            <mxPoint x="460" y="2800" as="sourcePoint" />
            <mxPoint x="461" y="2840" as="targetPoint" />
          </mxGeometry>
        </mxCell>
        <mxCell id="UmMJzBpT5TzHi9CVxHFJ-103" value="" style="endArrow=classic;html=1;rounded=0;fontSize=12;startSize=8;endSize=8;curved=1;exitX=0.5;exitY=1;exitDx=0;exitDy=0;entryX=0.5;entryY=0;entryDx=0;entryDy=0;" edge="1" parent="1">
          <mxGeometry width="50" height="50" relative="1" as="geometry">
            <mxPoint x="460.28" y="2880" as="sourcePoint" />
            <mxPoint x="461.28" y="2920" as="targetPoint" />
          </mxGeometry>
        </mxCell>
      </root>
    </mxGraphModel>
  </diagram>
</mxfile>
